<!--<svg xmlns="http://www.w3.org/2000/svg" viewBox="0 0 841.9 595.3">-->
<!--    <g fill="#61DAFB">-->
<!--        <path d="M666.3 296.5c0-32.5-40.7-63.3-103.1-82.4 14.4-63.6 8-114.2-20.2-130.4-6.5-3.8-14.1-5.6-22.4-5.6v22.3c4.6 0 8.3.9 11.4 2.6 13.6 7.8 19.5 37.5 14.9 75.7-1.1 9.4-2.9 19.3-5.1 29.4-19.6-4.8-41-8.5-63.5-10.9-13.5-18.5-27.5-35.3-41.6-50 32.6-30.3 63.2-46.9 84-46.9V78c-27.5 0-63.5 19.6-99.9 53.6-36.4-33.8-72.4-53.2-99.9-53.2v22.3c20.7 0 51.4 16.5 84 46.6-14 14.7-28 31.4-41.3 49.9-22.6 2.4-44 6.1-63.6 11-2.3-10-4-19.7-5.2-29-4.7-38.2 1.1-67.9 14.6-75.8 3-1.8 6.9-2.6 11.5-2.6V78.5c-8.4 0-16 1.8-22.6 5.6-28.1 16.2-34.4 66.7-19.9 130.1-62.2 19.2-102.7 49.9-102.7 82.3 0 32.5 40.7 63.3 103.1 82.4-14.4 63.6-8 114.2 20.2 130.4 6.5 3.8 14.1 5.6 22.5 5.6 27.5 0 63.5-19.6 99.9-53.6 36.4 33.8 72.4 53.2 99.9 53.2 8.4 0 16-1.8 22.6-5.6 28.1-16.2 34.4-66.7 19.9-130.1 62-19.1 102.5-49.9 102.5-82.3zm-130.2-66.7c-3.7 12.9-8.3 26.2-13.5 39.5-4.1-8-8.4-16-13.1-24-4.6-8-9.5-15.8-14.4-23.4 14.2 2.1 27.9 4.7 41 7.9zm-45.8 106.5c-7.8 13.5-15.8 26.3-24.1 38.2-14.9 1.3-30 2-45.2 2-15.1 0-30.2-.7-45-1.9-8.3-11.9-16.4-24.6-24.2-38-7.6-13.1-14.5-26.4-20.8-39.8 6.2-13.4 13.2-26.8 20.7-39.9 7.8-13.5 15.8-26.3 24.1-38.2 14.9-1.3 30-2 45.2-2 15.1 0 30.2.7 45 1.9 8.3 11.9 16.4 24.6 24.2 38 7.6 13.1 14.5 26.4 20.8 39.8-6.3 13.4-13.2 26.8-20.7 39.9zm32.3-13c5.4 13.4 10 26.8 13.8 39.8-13.1 3.2-26.9 5.9-41.2 8 4.9-7.7 9.8-15.6 14.4-23.7 4.6-8 8.9-16.1 13-24.1zM421.2 430c-9.3-9.6-18.6-20.3-27.8-32 9 .4 18.2.7 27.5.7 9.4 0 18.7-.2 27.8-.7-9 11.7-18.3 22.4-27.5 32zm-74.4-58.9c-14.2-2.1-27.9-4.7-41-7.9 3.7-12.9 8.3-26.2 13.5-39.5 4.1 8 8.4 16 13.1 24 4.7 8 9.5 15.8 14.4 23.4zM420.7 163c9.3 9.6 18.6 20.3 27.8 32-9-.4-18.2-.7-27.5-.7-9.4 0-18.7.2-27.8.7 9-11.7 18.3-22.4 27.5-32zm-74 58.9c-4.9 7.7-9.8 15.6-14.4 23.7-4.6 8-8.9 16-13 24-5.4-13.4-10-26.8-13.8-39.8 13.1-3.1 26.9-5.8 41.2-7.9zm-90.5 125.2c-35.4-15.1-58.3-34.9-58.3-50.6 0-15.7 22.9-35.6 58.3-50.6 8.6-3.7 18-7 27.7-10.1 5.7 19.6 13.2 40 22.5 60.9-9.2 20.8-16.6 41.1-22.2 60.6-9.9-3.1-19.3-6.5-28-10.2zM310 490c-13.6-7.8-19.5-37.5-14.9-75.7 1.1-9.4 2.9-19.3 5.1-29.4 19.6 4.8 41 8.5 63.5 10.9 13.5 18.5 27.5 35.3 41.6 50-32.6 30.3-63.2 46.9-84 46.9-4.5-.1-8.3-1-11.3-2.7zm237.2-76.2c4.7 38.2-1.1 67.9-14.6 75.8-3 1.8-6.9 2.6-11.5 2.6-20.7 0-51.4-16.5-84-46.6 14-14.7 28-31.4 41.3-49.9 22.6-2.4 44-6.1 63.6-11 2.3 10.1 4.1 19.8 5.2 29.1zm38.5-66.7c-8.6 3.7-18 7-27.7 10.1-5.7-19.6-13.2-40-22.5-60.9 9.2-20.8 16.6-41.1 22.2-60.6 9.9 3.1 19.3 6.5 28.1 10.2 35.4 15.1 58.3 34.9 58.3 50.6-.1 15.7-23 35.6-58.4 50.6zM320.8 78.4z"/>-->
<!--&lt;!&ndash;        <circle cx="420.9" cy="296.5" r="45.7"/>&ndash;&gt;-->
<!--&lt;!&ndash;        <path d="M520.5 78.1z"/>&ndash;&gt;-->
<!--    </g>-->
<!--</svg>-->

<!--<svg t="1563349464063" class="icon" viewBox="0 0 1024 1024" version="1.1" xmlns="http://www.w3.org/2000/svg" p-id="2908" width="200" height="200"><path d="M168 566.19m-88 0a88 88 0 1 0 176 0 88 88 0 1 0-176 0Z" fill="#FFCEBF" p-id="2909"></path><path d="M168 670.19a104 104 0 1 1 104-104 104.11 104.11 0 0 1-104 104z m0-176a72 72 0 1 0 72 72 72.08 72.08 0 0 0-72-72z" fill="#222222" p-id="2910"></path><path d="M856 566.19m-88 0a88 88 0 1 0 176 0 88 88 0 1 0-176 0Z" fill="#FFCEBF" p-id="2911"></path><path d="M856 670.19a104 104 0 1 1 104-104 104.11 104.11 0 0 1-104 104z m0-176a72 72 0 1 0 72 72 72.08 72.08 0 0 0-72-72z" fill="#222222" p-id="2912"></path><path d="M862.72 416L864 585c0 207.09-157.6 375-352 375S160 792.13 160 585l1.28-169S144 80 512 80s350.72 336 350.72 336z" fill="#FFCEBF" p-id="2913"></path><path d="M512 976a347.31 347.31 0 0 1-143.59-30.88 366.42 366.42 0 0 1-117-84 392.06 392.06 0 0 1-78.62-124.22A409.77 409.77 0 0 1 144 585v-0.12l1.27-168.62c-0.2-4.83-1.23-39.79 8.53-86.21 9.53-45.38 31.67-110.8 83-164.81C300.6 98.07 393.21 64 512 64s211.4 34.07 275.23 101.28c51.3 54 73.44 119.43 83 164.81 9.76 46.42 8.73 81.38 8.53 86.21L880 585a409.77 409.77 0 0 1-28.79 151.9 392.06 392.06 0 0 1-78.64 124.23 366.42 366.42 0 0 1-117 84A347.31 347.31 0 0 1 512 976zM176 585.1C176 783 326.75 944 512 944s336-161 336-358.9l-1.28-169.45v-0.46c0-0.82 1.47-34.71-8.08-79.56-8.76-41.1-28.86-100.23-74.86-148.54C706.26 126.65 621.54 96 512 96s-194.47 30.72-252 91.32c-88.56 93.22-82.78 226.52-82.72 227.86v0.47z" fill="#222222" p-id="2914"></path><path d="M192 640a56 32 0 1 0 112 0 56 32 0 1 0-112 0Z" fill="#FFA096" p-id="2915"></path><path d="M720 640a56 32 0 1 0 112 0 56 32 0 1 0-112 0Z" fill="#FFA096" p-id="2916"></path><path d="M512 64c-352 0-352 192-352 400 0 0 64-128 160-176 112 64 272 64 384 0 96 48 160 176 160 176 0-208 0-400-352-400z" fill="#644B46" p-id="2917"></path><path d="M864 480a16 16 0 0 1-14.31-8.84c-0.6-1.2-59.48-117.22-145.51-165C649 335.78 581.12 352 512 352s-137-16.22-192.18-45.82c-86 47.76-144.91 163.78-145.51 165A16 16 0 0 1 144 464c0-107.17 0-208.4 46.25-286.18 25.37-42.66 62-73.83 111.94-95.27C356.34 59.3 425 48 512 48s155.66 11.3 209.81 34.55c50 21.44 86.57 52.61 111.94 95.27C880 255.6 880 356.83 880 464a16 16 0 0 1-16 16zM704 272a16 16 0 0 1 7.16 1.69C771.42 303.82 819 362.54 847.7 405.43c-1.25-80.43-7.7-154.57-41.45-211.25C759.93 116.28 666.43 80 512 80s-247.93 36.28-294.25 114.18c-33.7 56.68-40.2 130.79-41.45 211.25 28.75-42.89 76.28-101.61 136.54-131.74a16 16 0 0 1 15.1 0.42c106.65 60.94 261.47 60.94 368.12 0A16.06 16.06 0 0 1 704 272zM768 512h-28.23a48 48 0 0 0-71.54 0H640a16 16 0 0 0 0 32h16a48 48 0 0 0 96 0h16a16 16 0 0 0 0-32zM384 512h-28.23a48 48 0 0 0-71.54 0H256a16 16 0 0 0 0 32h16a48 48 0 0 0 96 0h16a16 16 0 0 0 0-32zM512 848c-87.23 0-131.77-16.32-133.62-17a16 16 0 0 1 11.19-30c0.62 0.23 41.93 15 122.43 15 80.71 0 122-14.85 122.43-15a16 16 0 1 1 11.19 30c-1.85 0.68-46.39 17-133.62 17z" fill="#222222" p-id="2918"></path><path d="M320 728c-97.05 0-176-79-176-176s79-176 176-176 176 79 176 176-78.95 176-176 176z m0-320c-79.4 0-144 64.6-144 144s64.6 144 144 144 144-64.6 144-144-64.6-144-144-144zM704 728c-97 0-176-79-176-176s79-176 176-176 176 79 176 176-78.95 176-176 176z m0-320c-79.4 0-144 64.6-144 144s64.6 144 144 144 144-64.6 144-144-64.6-144-144-144z" fill="#222222" p-id="2919"></path></svg>-->
<!--<svg t="1563350296819" class="icon" viewBox="0 0 1638 1024" version="1.1" xmlns="http://www.w3.org/2000/svg" p-id="1078" width="200" height="200"><path d="M1150.183719 430.554145L1011.572816 344.137416l-172.068708-32.119492s-132.301718-12.809559-142.817028 0-238.984317 152.949963-238.984317 152.949962l-123.698282 172.068708-12.809559 121.595221-17.206871 264.98581h125.992532l36.134428-307.238237 74.754294-156.008962s106.682599-78.960418 112.991785-78.960419 166.141897-36.325616 166.141897-36.325616l109.168036 27.722181 166.333085 83.35773 74.754294 108.594473 44.737864 294.428678-8.603436 64.430172h119.492159V697.260642z" fill="#5D9CEC" p-id="1079"></path><path d="M1401.977595 535.324869l-173.215832-214.70351-152.949963-96.932039-238.219567-41.678864h-124.65422L563.620612 229.424944l-207.056012 133.831217-120.448095 191.187454-47.988051 298.634802-23.516057 170.921583h119.492159L305.899925 879.462285l6.309186-183.539955 42.634802-86.416729 106.682599-155.626587 77.813294-64.047797 95.593726-46.840926 151.420464-22.560119s132.301718 5.353249 141.86109 7.647498 165.377147 55.444361 165.377147 55.444361l160.023898 146.258402 40.531741 110.697536 27.72218 69.401045v173.789395l4.206124 140.140404h123.698283V730.336072z" fill="#A0D468" p-id="1080"></path><path d="M1596.03286 752.705004l-83.166542-324.253921-177.039582-209.159074L1107.548917 76.474981 838.739358 35.943241h-157.920837L512.382375 95.593727l-164.230022 100.373413-157.920837 166.333084-100.182225 167.671397-53.3413 261.162061v232.866318h127.904406l10.706498-350.255414 44.737864-134.40478 108.785661-160.023899 134.404779-106.300224 179.142644-77.048543 207.056012-14.912622 179.142644 31.928305 226.174757 130.198656L1429.699776 592.681105l42.634802 431.318895h134.40478l-10.706498-271.294996z" fill="#FC6E51" p-id="1081"></path><path d="M819.238237 409.523525a409.714712 409.714712 0 0 0-409.714712 409.714712v204.761763H477.968633V819.238237a341.269604 341.269604 0 1 1 682.539209 0v204.761763h68.253921V819.238237a409.523525 409.523525 0 0 0-409.523526-409.714712z" fill="#AC92EB" p-id="1082"></path><path d="M819.238237 273.015683a546.222554 546.222554 0 0 0-546.222554 546.222554v204.761763h68.253921V819.238237a477.968633 477.968633 0 0 1 139.949216-338.019417 477.968633 477.968633 0 0 1 815.796863 338.019417v204.761763h68.253921V819.238237a546.222554 546.222554 0 0 0-546.031367-546.222554z" fill="#4FC2E9" p-id="1083"></path><path d="M819.238237 136.507842A682.730396 682.730396 0 0 0 136.507842 819.238237v204.761763h68.253921V819.238237a614.476475 614.476475 0 0 1 853.460791-566.106049A613.32935 613.32935 0 0 1 1433.9059 819.238237v204.761763h68.445108V819.238237A682.730396 682.730396 0 0 0 819.238237 136.507842z" fill="#FFCE54" p-id="1084"></path><path d="M819.238237 0A819.04705 819.04705 0 0 0 0 819.238237v204.761763h68.253921V819.238237A751.366692 751.366692 0 0 1 1111.563854 127.330844a749.646004 749.646004 0 0 1 458.849888 691.907393v204.761763h68.062733V819.238237A819.238237 819.238237 0 0 0 819.238237 0z" fill="#ED5564" p-id="1085"></path></svg>-->
<svg t="1563350379647" class="icon" viewBox="0 0 1024 1024" version="1.1" xmlns="http://www.w3.org/2000/svg" p-id="848" width="200" height="200"><path d="M512.4 1c88.2 152.9 94.7 347.4 0.1 511.3 163.8-94.6 255.4-266.1 255.6-442.6C692.9 26.1 605.6 1.1 512.4 1z" fill="#04A0FC" p-id="849"></path><path d="M256.5 69.4c153 88.3 256 253.6 256 442.9 94.6-163.9 88.1-358.4-0.1-511.3h-0.4c-93.1 0-180.3 24.9-255.5 68.4z" fill="#04A0FC" p-id="850"></path><path d="M512.5 512.3c0-189.4-103-354.6-256-442.9-77.6 44.9-142.4 109.7-187.2 187.3 176.6-0.1 348.5 91.6 443.2 255.6z" fill="#08C3AE" p-id="851"></path><path d="M512.5 512.3c-94.7-164-266.6-255.7-443.3-255.6C25.8 331.8 1 419 1 512v0.5c153-88.3 347.6-94.8 511.5-0.2z" fill="#08C3AE" p-id="852"></path><path d="M1 512.5c0.1 93.1 25.1 180.4 68.7 255.6C158 615.2 323.2 512.3 512.5 512.3 348.6 417.7 154 424.2 1 512.5z" fill="#1DF9DE" p-id="853"></path><path d="M69.7 768.1c44.9 77.5 109.6 142 187.2 186.8 0.2-176.4 91.8-348 255.6-442.6-189.3 0-354.5 102.9-442.8 255.8z" fill="#1DF9DE" p-id="854"></path><path d="M256.9 954.9C332 998.2 419.1 1023 512 1023h0.2c-87.9-152.8-94.2-347 0.3-510.7-163.8 94.6-255.4 266.1-255.6 442.6z" fill="#FFCA00" p-id="855"></path><path d="M512.2 1023c93 0 180.2-24.9 255.3-68.4-152.5-88.4-255-253.4-255-442.3-94.5 163.7-88.2 357.9-0.3 510.7z" fill="#FFCA00" p-id="856"></path><path d="M954.4 767.9c-176.2-0.4-347.5-92-441.9-255.6 0 188.9 102.5 353.9 255 442.3 77.4-44.8 142-109.3 186.9-186.7z" fill="#FD8C01" p-id="857"></path><path d="M1023 512.7c-152.8 87.8-346.9 94.1-510.5-0.4 94.4 163.6 265.7 255.2 441.9 255.6 43.5-75.1 68.5-162.2 68.6-255.2z" fill="#FD8C01" p-id="858"></path><path d="M1023 512c0-92.8-24.8-179.9-68-254.9-88.4 152.6-253.4 255.2-442.5 255.2 163.6 94.5 357.7 88.2 510.5 0.4v-0.7z" fill="#F0483D" p-id="859"></path><path d="M954.5 256.6c-46.4-80.4-111.4-143.4-186.4-186.7-0.3 176.3-91.9 347.8-255.6 442.3 188.9 0 353.9-102.5 442.3-254.9 0-0.3-0.1-0.5-0.3-0.7z" fill="#F0483D" p-id="860"></path></svg>